<?xml version="1.0" encoding="utf-8"?>
<!-- Generator: Adobe Illustrator 17.1.0, SVG Export Plug-In . SVG Version: 6.00 Build 0)  -->
<!DOCTYPE svg PUBLIC "-//W3C//DTD SVG 1.1//EN" "http://www.w3.org/Graphics/SVG/1.1/DTD/svg11.dtd">
<svg version="1.1" id="Layer_1" xmlns="http://www.w3.org/2000/svg" xmlns:xlink="http://www.w3.org/1999/xlink" x="0px" y="0px"
	 viewBox="161 57.7 1649 621.3" enable-background="new 161 57.7 1649 621.3" xml:space="preserve">
<g transform="translate(0.000000,732.000000) scale(0.100000,-0.100000)">
	<path d="M16067,6689c-20-164,2-391,52-535c122-354,452-534,934-510c118,6,332,37,345,50c3,3-17,6-44,6c-144,1-384,50-540,111
		c-376,147-645,462-724,848l-17,84L16067,6689z"/>
	<path d="M15617,6583c-9-37-21-95-28-128c-8-34-13-125-13-210c0-170,22-276,75-360c16-25,25-45,21-45c-13,0-109,103-136,147
		c-50,82-78,187-85,323c-6,102-9,118-15,86c-12-55-1-271,18-339c60-219,229-357,437-357h41l-69,74c-75,81-122,154-159,246
		c-62,151-89,347-74,521c5,57,7,105,5,107S15625,6621,15617,6583z"/>
	<path d="M15930,6348c-20-159-8-417,24-546c86-343,289-575,614-701c77-31,75-26-11,23c-421,240-631,640-615,1169c3,86,4,157,3,157
		C15943,6450,15937,6404,15930,6348z"/>
	<path d="M16031,6090c-1-30,5-93,13-140c51-315,205-554,435-673c98-52,208-83,376-106c225-32,366-58,513-96c404-104,617-266,630-479
		c2-39,0-81-5-94c-8-22-11-20-48,35c-79,114-258,268-417,357l-53,30l42-46c171-189,243-367,243-603c0-239-74-462-254-769
		c-119-202-162-323-153-433c7-96,50-158,144-206c48-25,51-20,6,12c-61,44-73,67-73,137c0,109,85,249,295,484
		c176,197,274,361,316,530c27,106,23,242-10,339l-22,63l35,87c138,343,22,619-350,830c-49,28-94,51-99,51s18-20,51-44
		c107-78,201-180,268-291c47-78,46-89-2-28c-183,231-560,402-1072,488c-431,72-716,274-794,566l-15,54V6090z"/>
	<path d="M15223,5919c-212-185-307-419-262-640c6-30,12-117,14-194c2-119,6-152,28-220c38-114,109-233,195-325
		c102-110,124-119,63-26c-60,92-104,197-133,313c-17,69-21,118-21,228c1,221,51,416,165,645l57,115l-49-55c-74-81-166-213-203-291
		c-17-37-35-68-38-68c-4-1-3,20,2,47c27,144,102,319,193,445c30,42,53,77,51,77S15255,5947,15223,5919z"/>
	<path d="M15579,5646c-44-15-84-43-124-86l-30-32l53,33c45,28,62,33,115,33c105-1,253-57,387-147c29-20,58-33,63-30
		c14,9,1,83-21,112c-11,15-54,41-103,63C15769,5657,15658,5675,15579,5646z"/>
	<path d="M15508,5445c36-71,100-117,197-141l50-12l-40-1c-55-1-102,13-158,49c-26,16-47,26-47,22c0-13,44-69,69-90l24-18l-29-11
		c-16-7-47-15-69-19c-37-6-38-8-15-14c41-13,95-11,141,5l44,15l-24-21c-14-11-38-23-54-26c-44-9-12-23,53-23c61,0,138,18,188,44
		c42,22,41,6-3-33c-20-17-33-31-30-31c15,0,73,35,100,60c38,35,65,43,101,30l29-11l-23,24c-32,34-80,53-208,81
		c-132,29-211,64-273,120l-44,41L15508,5445z"/>
	<path d="M15320,5373c-86-238-111-445-71-603c35-140,71-198,212-345c69-73,144-158,166-191c40-59,98-182,90-190c-2-3-17,12-32,32
		c-28,36-139,124-157,124c-5,0,11-23,37-52c129-144,156-327,74-491l-31-60l41,32c69,55,157,159,194,229c57,108,70,169,64,286
		c-3,56-9,112-13,125l-7,24l34-25c111-81,205-112,285-93c95,22,225,116,372,269c45,47,82,83,82,80c0-14-69-139-119-214
		c-73-111-252-291-358-361c-45-29-80-55-78-57c6-7,146,57,213,97c216,128,368,328,437,571c23,81,27,119,31,255l4,160l-15-78
		c-23-120-64-257-93-310c-35-66-156-186-278-278c-99-74-189-119-239-119c-72,0-236,98-313,187c-26,30-92,100-147,156
		c-250,253-364,517-353,815c2,61,3,112,2,112S15338,5421,15320,5373z"/>
	<path fill="#C3151E" d="M3025,5204c-479-48-762-217-816-487c-16-76,1-155,42-201c16-19,29-36,29-39s-39-26-87-51
		c-277-144-503-403-567-652c-20-78-21-197-1-255c48-139,209-209,450-196c490,27,996,324,1521,894c101,110,104,112,119,90
		c50-71,59-226,18-317c-11-25-56-93-100-151c-99-131-136-203-141-281c-4-47-1-59,12-64c34-13,62,7,116,82c221,309,458,578,782,890
		c150,143,255,230,397,325c127,86,195,121,312,160c177,59,314,49,420-31c43-32,55-37,57-24c6,25-36,62-97,86c-81,32-288,32-411-1
		c-328-87-724-360-1140-787l-155-160v102c0,93-2,105-32,162l-31,61l150,151c223,224,387,349,530,407c50,21,73,24,117,20
		c51-5,54-4,36,9c-52,39-480,153-745,198C3546,5190,3169,5218,3025,5204z M3359,5110c242-11,435-29,656-61c163-23,394-67,414-78
		c9-6-10-15-55-29c-185-57-399-196-688-446l-56-48l-31,26c-48,40-166,93-259,116c-272,65-592,44-904-61l-121-40l-31,35
		c-32,37-54,94-54,139c0,15,10,52,22,84c70,187,384,334,773,363c55,4,102,8,105,8C3133,5119,3236,5115,3359,5110z M3279,4574
		c46-8,112-26,147-39c61-23,166-84,178-103c7-11-362-375-510-503c-486-421-880-612-1177-571c-205,29-299,147-268,337
		c7,38,24,97,40,130c133,283,611,608,1068,726C2948,4600,3095,4606,3279,4574z"/>
	<path d="M11746,5200c-363-42-625-177-721-373c-59-121-58-229,3-313l28-39l-92-51c-127-70-216-138-315-241c-125-131-208-268-244-408
		c-18-68-21-194-6-242c5-18,8-33,6-33s-38-7-81-15c-69-13-86-13-173,2c-140,25-494,25-611,0c-357-75-618-252-741-502
		c-52-106-70-181-70-290c-1-121,25-190,96-261c50-50,67-59,183-90c6-2,12-15,12-29c0-74,74-154,166-181c44-13,82-15,163-11
		c127,6,215,32,376,113c147,73,276,167,404,293c140,137,253,236,290,255c45,24,71,21,71-7c0-42-61-121-203-263
		c-120-119-154-146-219-179c-75-37-86-38-145-20c-20,7-23,4-23-23c0-32,29-62,60-62c39,0,124,55,223,144c59,53,107,94,107,91
		c0-4-10-20-21-37c-28-39-50-114-43-145c4-13,20-31,36-39c59-31,141-1,273,99c33,25,61,44,62,43c2-1-2-18-7-37c-23-78,16-125,99-117
		c59,6,120,35,208,99l68,49l5-48c6-60,21-78,71-94c71-21,191,19,304,101c77,57,81,58,57,19c-30-48-29-128,2-128c7,0,44,39,82,86
		c127,159,308,311,500,422c102,59,152,78,167,62c9-9-9-31-83-99c-195-177-279-267-306-325c-40-88-15-146,63-146c39,0,121,31,171,65
		l36,25l14-34c22-57,86-69,217-41c75,16,207,75,279,125c54,37,58,37,46,4c-15-39-12-101,6-118c50-51,147-20,301,95
		c29,21,55,39,58,39s3-11-1-24c-15-60,40-136,97-136c172,0,569,377,569,540c0,45-16,60-69,67c-152,21-444-159-543-333
		c-31-56-82-104-183-171c-117-79-165-93-165-49c0,41,86,145,290,349c171,170,194,197,172,197c-65-1-119-23-189-76
		c-71-55-226-201-275-260c-30-37-128-108-213-155l-60-33l48,47c73,71,96,132,106,271c9,138,11,141,146,221c115,67,145,92,145,116
		c0,15-7,19-35,19c-53,0-104-31-171-102c-138-148-319-319-343-325c-35-8-121-74-179-137c-74-81-212-166-248-152
		c-37,14-10,52,165,230c214,217,251,276,200,322c-58,52-219-17-459-197l-45-34l27,35c25,33,116,118,197,184l36,29l-45-7
		c-123-19-190-62-328-214c-121-134-147-159-233-224c-95-71-183-116-243-124c-124-17-93,89,83,278c34,38,48,47,66,42c13-3,50,0,82,6
		c159,33,288,142,255,215c-24,52-119,43-258-25c-154-74-282-187-356-313c-47-81-222-201-283-195c-74,7-26,88,195,324l153,164h93
		c51,0,96,4,99,10c9,14-36,22-100,18c-30-1-55-1-55,2c0,7,186,172,266,236c38,30,96,68,128,84l59,30h-50c-117,0-245-73-445-254
		c-103-93-122-106-153-106c-27,0-35,4-35,18c0,25-20,42-48,42c-50,0-96-32-284-200c-67-60-70-62-37-20c48,60,71,106,72,146
		c1,41-16,62-59,70c-69,13-138-36-402-285c-154-144-252-215-403-291c-163-81-240-104-361-104c-105-1-128,8-172,67
		c-26,35-26,113,1,183c45,116,168,258,302,348c92,61,245,134,315,148c51,11,58,10,108-14c70-34,94-41,118-33c54,17-3,60-94,71
		c-54,6-56,8-56,36c0,113,222,344,413,428c45,20,49,20,134,5c49-9,122-28,163-43c69-25,87-27,230-27c232,1,414,47,660,168
		c270,133,522,328,823,637c210,215,198,210,231,106c40-124,12-230-103-382c-108-143-151-229-151-300c0-43,4-55,20-64
		c32-17,50,0,144,130c312,433,809,942,1136,1165c103,70,281,157,370,181c79,21,209,24,271,6c25-8,70-32,99-54c60-45,87-40,46,9
		c-43,51-116,76-237,81c-118,5-200-6-322-44c-319-100-751-416-1151-843c-87-93-87-93-79-55c13,67,6,140-22,206c-15,35-29,70-31,78
		c-7,22,315,336,443,432c56,42,136,93,179,115c68,33,87,38,146,37c37,0,68,1,68,3c0,8-85,44-158,67c-228,72-603,150-867,181
		C12164,5204,11852,5212,11746,5200z M12310,5100c283-21,641-70,839-115c76-18,79-26,11-40c-50-10-225-95-312-150
		c-102-67-216-153-334-256l-101-88l-46,33c-249,177-758,193-1187,37c-80-30-84-30-103-13c-36,32-60,94-60,153c0,153,148,290,404,374
		c90,29,156,43,319,68C11794,5112,12182,5109,12310,5100z M12100,4565c87-20,180-60,245-105l47-32l-179-176
		c-449-442-751-674-1053-806c-70-31-208-76-232-76c-5,0-8,9-8,21c0,31-60,85-111,100c-28,9-102,14-202,14h-157l-11,34
		c-18,53-13,165,11,235c37,113,132,235,275,355c251,209,586,374,895,440C11740,4595,11982,4593,12100,4565z M10807,3468
		c47-12,97-57,91-84c-2-14-16-21-53-26c-104-16-268,21-339,77c-31,24-9,34,90,43C10693,3487,10743,3484,10807,3468z M10127,3433
		c19-4,13-10-36-35c-108-56-220-166-257-255c-18-43-18-147,1-182l14-28l-74-6c-239-21-417-95-572-240c-94-89-183-235-183-302
		c0-19-15-19-71,0c-67,23-114,67-151,143c-30,61-33,74-32,157c3,380,395,692,949,755C9793,3448,10083,3444,10127,3433z M10451,3433
		c12-15,12-16-4-10c-10,4-23,7-28,7c-6,0-7,5-4,10C10424,3455,10436,3452,10451,3433z M11580,2799c0-54-218-206-283-197
		c-24,3-21,7,44,63c83,71,205,155,225,155C11574,2820,11580,2811,11580,2799z M13588,2784c5-37-79-147-227-294
		c-164-163-257-233-305-228c-80,8-15,118,187,315S13578,2854,13588,2784z M10784,2759c-5-8,12-10,60-7c36,2,66,1,66-2
		c0-4-12-17-26-31c-15-13-71-73-126-134c-100-110-261-250-330-286c-21-10-51-19-68-19c-26,0-30,4-30,28c0,41,65,145,144,229
		c69,74,204,186,261,216C10770,2772,10794,2775,10784,2759z M12482,2627c-74-158-178-284-274-333c-51-26-107-31-126-12
		c-35,35,7,89,115,152c33,20,73,50,88,68c31,39,228,218,233,213C12520,2713,12504,2674,12482,2627z"/>
	<path d="M16870,5037c0-4,7-21,15-37c28-54,73-254,85-375c37-374-82-762-333-1085c-166-214-367-392-657-582
		c-226-149-421-393-495-617l-17-53l-20,30c-51,81-76,205-59,297c39,218,244,424,584,588c408,197,664,428,813,731
		c116,239,151,517,98,774c-23,111-30,115-37,19c-4-46-18-124-32-173c-108-376-382-636-821-780c-166-54-224-83-286-145
		c-74-75-119-190-117-303l1-41l15,43c43,121,207,225,448,283c72,17,169,44,218,59c48,15,87,26,87,24c0-1-39-31-87-66
		c-96-70-179-122-348-218c-297-170-480-331-564-499c-96-188-80-384,44-570l55-82l-11-72c-30-195,47-410,205-571
		c34-34,124-109,198-164c204-152,286-259,310-403c22-136-36-304-157-452c-30-37-51-67-46-67c20,0,163,153,210,224
		c141,216,144,429,10,652c-19,31-88,115-153,187c-154,170-180,222-174,340c4,72,9,91,46,162c23,44,75,118,115,165
		c72,83,125,130,447,397c355,294,616,584,755,838c242,443,211,872-94,1275C17049,4865,16870,5056,16870,5037z"/>
	<path d="M17256,4864c127-124,204-247,260-414c27-80,28-95,28-260c1-167-1-181-31-291c-47-168-122-334-230-509l-34-55l46,50
		c68,74,187,256,239,365c153,326,153,599,0,848c-55,89-189,227-284,291l-65,44L17256,4864z"/>
	<path d="M16224,4900c-39-15-41-33-3-25c43,9,51,14,44,26C16258,4912,16252,4912,16224,4900z"/>
	<path d="M16072,4890c14-4,32-11,40-15c7-3,4,1-6,9c-11,9-29,16-40,15C16049,4898,16050,4897,16072,4890z"/>
	<path fill="#C3151E" d="M6415,4880c-94-12-162-43-275-129c-225-171-595-511-803-741c-173-190-212-228-335-320
		c-155-117-283-175-298-136c-24,62,114,235,481,601c330,330,619,579,751,647c35,18,64,36,64,39c0,11-128-3-185-22
		c-34-11-85-35-115-55c-306-201-969-853-1070-1051c-36-69-35-143,2-179c21-22,36-27,72-27c60,0,189,63,302,149c47,35,87,64,89,64
		s-3-21-12-46c-20-58-12-122,17-146c56-46,160-12,318,102c46,33,85,60,87,60c3,0,0-12-5-26c-6-14-10-45-10-69c0-36,5-48,28-65
		c61-49,181-7,325,112c152,125,164,134,142,108c-112-136-388-405-550-535c-238-192-519-327-739-356c-253-33-505,70-561,229
		c-33,91-32,90-41,68c-11-29,13-104,50-155c45-64,121-114,224-147c82-27,96-29,257-29c151,1,182,4,277,28c266,66,511,194,738,385
		c106,89,249,234,511,517c210,227,418,437,474,478l40,30l-73-7c-41-3-86-13-102-21c-49-25-170-127-320-270c-339-321-518-450-559-401
		c-10,12-8,22,8,54c49,97,259,318,500,527c113,98,113,106,7,85c-77-15-92-23-216-116c-93-69-230-198-348-326
		c-99-108-334-258-381-243c-61,19,20,138,292,426c362,386,847,813,1012,891c57,27,58,28,25,27C6491,4888,6448,4884,6415,4880z"/>
	<path fill="#C3151E" d="M10640,4839c-36-5-85-16-110-25c-125-47-354-231-657-528c-79-77-143-137-143-133c0,3,5,18,10,33
		c15,38,4,61-36,74c-84,28-285-43-461-162c-200-134-343-335-343-479c0-64,11-85,54-99c67-22,162,22,316,146c44,36,80,63,80,61
		s-7-19-16-37s-19-51-21-74c-4-35-1-48,20-72c58-67,178-23,380,139c186,150,244,207,208,207c-5,0-64-48-132-106
		c-130-111-265-207-319-225c-26-9-35-9-47,3c-13,14-13,19,2,49c58,113,542,617,865,901c165,145,322,266,392,302
		C10756,4852,10753,4854,10640,4839z M9720,4206c0-45-211-290-370-431c-171-151-316-246-354-232c-27,11-18,60,23,124
		c105,162,500,514,627,558C9687,4239,9720,4231,9720,4206z"/>
	<path fill="#C3151E" d="M16000,4678c-47-24-87-44-89-45s22-34,54-73c49-60,65-72,108-85c65-19,139-19,204,0c44,13,59,25,108,86
		c31,39,55,71,53,72c-1,1-42,22-91,46l-87,44l-43-17c-40-15-47-15-80-1c-20,8-40,15-45,15C16088,4720,16046,4701,16000,4678z"/>
	<path d="M14324,4536c-17-8-34-21-38-31c-32-83,52-158,122-109c52,36,48,110-9,139C14365,4553,14363,4553,14324,4536z"/>
	<path d="M14672,4454c-58-29-112-99-112-146c0-23-24-52-132-159c-73-72-181-174-240-227c-60-53-108-101-108-106
		c0-12-137-125-220-181c-73-50-177-98-195-91c-26,9-17,51,24,112c49,72,263,301,431,459c69,65,130,122,135,128c16,16-139,1-173-17
		c-82-42-354-288-429-388c-51-68-231-211-321-255c-66-33-74-35-88-21s-14,19,0,47c40,76,251,308,460,504l139,130l-62-6
		c-68-6-119-29-200-89l-53-40l27,46c36,62,29,91-26,108c-131,39-453-114-630-299c-158-166-230-357-159-427c16-16,33-21,73-21
		c65,1,132,36,260,136c88,70,98,74,72,29c-22-38-19-116,5-140c58-58,162-27,333,101c42,32,77,55,77,51s-5-26-10-50c-8-32-7-50,4-76
		c40-96,170-72,364,68c94,68,275,222,282,239c3,8,88,95,190,194l185,180l45-24c79-42,105-4-226-323c-137-133-185-207-188-292
		c-1-44,3-53,28-75c41-35,107-29,207,20c156,77,465,337,401,337c-5,0-55-41-113-91c-213-186-394-289-415-235c-11,29,34,86,196,247
		c283,279,313,361,159,427c-26,11-50,26-54,32c-10,17,37,63,98,95c85,46,157,94,157,105c0,6-30,10-73,10
		C14739,4480,14714,4475,14672,4454z M13538,4202c5-37-40-95-197-256c-301-306-541-472-541-372c0,59,124,214,298,372
		C13353,4177,13527,4278,13538,4202z"/>
	<path fill="#C3151E" d="M4608,4259c-191-28-462-210-577-389c-130-200-100-373,61-358c182,18,588,375,670,590c34,90,14,158-46,158
		c-13,0-30,2-38,4C4671,4266,4640,4264,4608,4259z M4744,4213c24-61-230-362-479-566c-89-73-178-119-208-108c-36,14-29,75,18,147
		c45,68,342,369,430,436C4634,4219,4728,4255,4744,4213z"/>
	<path fill="#C3151E" d="M8188,4259c-191-28-462-210-577-389c-130-200-100-373,61-358c182,18,588,375,670,590c34,90,14,158-46,158
		c-13,0-30,2-38,4C8251,4266,8220,4264,8188,4259z M8324,4213c24-61-230-362-479-566c-89-73-178-119-208-108c-36,14-29,75,18,147
		c45,68,342,369,430,436C8214,4219,8308,4255,8324,4213z"/>
	<path fill="#C3151E" d="M8878,4259c-191-28-462-210-577-389c-130-200-100-373,61-358c182,18,588,375,670,590c34,90,14,158-46,158
		c-13,0-30,2-38,4C8941,4266,8910,4264,8878,4259z M9014,4213c24-61-230-362-479-566c-89-73-178-119-208-108c-36,14-29,75,18,147
		c45,68,342,369,430,436C8904,4219,8998,4255,9014,4213z"/>
	<path fill="#C3151E" d="M7637,4243c-37-15-38-17-32-53c8-49-7-80-103-199c-147-184-324-342-465-417c-79-42-121-43-125-4
		c-7,73,220,346,483,578l60,53l-41-4c-49-6-166-63-249-122c-33-23-112-91-175-150c-176-164-298-268-374-318c-139-93-201-84-147,21
		c56,110,379,418,578,552c29,19,53,38,53,41c0,4-48,10-107,14c-118,7-274-7-328-29c-42-18-69-57-60-86c7-22,7-22,33,3
		c42,40,137,67,287,82l70,6l-150-75c-244-122-408-265-478-415c-39-83-42-149-9-184c71-75,222-19,414,154c40,35,68,55,64,44
		c-41-98-44-158-10-196c69-76,217-30,419,131c280,224,560,531,530,580C7766,4265,7680,4261,7637,4243z"/>
	<path d="M8842,3281c-101-35-249-150-506-394c-82-78-144-131-137-119c7,13,9,32,6,42c-19,61-200,21-372-82c-76-45-199-162-242-228
		c-35-56-43-63-140-138c-70-53-175-106-196-99c-38,15-13,52,164,231c214,217,251,276,200,322c-58,52-219-17-459-197l-45-34l27,35
		c26,34,121,122,196,183c22,17,29,27,19,27c-30,0-122-22-149-36c-52-27-149-116-254-234c-172-194-394-347-394-271
		c0,35,93,145,287,339c149,148,188,192,170,192c-46,0-104-23-165-66c-59-41-62-42-43-15c28,38,27,77-1,92c-52,28-211-18-356-103
		c-91-53-232-200-272-283c-41-85-48-167-16-191c51-37,139-7,262,90l71,55l-14-41c-25-74,1-118,71-118c48,0,112,30,193,91
		c59,45,71,48,49,17c-25-36-19-118,8-118c7,0,44,39,82,86c127,159,308,311,500,422c102,59,152,78,167,62c9-9-9-31-83-99
		c-267-243-341-337-325-411c20-92,141-76,303,40c46,33,85,60,87,60s-1-15-6-32c-11-39-4-82,18-103c22-22,87-18,141,9
		c26,13,81,50,122,82c46,36,71,51,66,39c-29-72-27-114,8-137c22-15,90-8,134,14c72,34,342,248,342,270c0,20-27,3-108-68
		c-110-96-256-194-288-194c-62,0-1,86,253,355c245,260,591,568,718,640l60,35h-50C8918,3299,8871,3291,8842,3281z M6806,2795
		c24-62-439-501-558-530c-39-10-45,14-17,72c15,31,68,93,153,178C6601,2732,6784,2853,6806,2795z M8180,2791c0-64-299-373-470-484
		c-105-68-146-56-100,31c49,91,310,340,454,434C8130,2814,8180,2823,8180,2791z"/>
	<path d="M17143,3093c-49-66-103-121-167-171l-29-22l31-68c66-149,69-299,9-427c-20-41-57-98-84-127c-45-49-46-50-15-32
		c51,29,154,133,202,205c114,168,161,386,129,606c-6,43-15,84-18,91C17196,3157,17177,3139,17143,3093z"/>
	<path d="M13180,3040c-27-27-25-62,4-89c31-29,73-25,99,10C13330,3025,13237,3097,13180,3040z"/>
	<path d="M14799,2960c-20-10-62-47-95-82c-138-148-319-319-343-325c-35-8-121-74-179-137c-74-81-212-166-248-152
		c-37,14-10,52,165,230c214,217,251,276,200,322c-58,52-219-17-459-197l-45-34l27,35c26,34,121,122,196,183c22,17,29,27,19,27
		c-30,0-122-22-149-36c-126-64-428-418-428-501c0-40,9-63,24-63c7,0,44,39,82,86c127,159,308,311,500,422c102,59,152,78,167,62
		c9-9-9-31-83-99c-195-177-279-267-306-325c-40-88-15-146,63-146c39,0,121,31,171,65l36,25l14-34c50-126,360-36,634,183
		c32,25,58,52,58,59c0,6-2,12-5,12c-2,0-54-37-114-82c-60-46-138-98-173-117l-63-35l48,47c73,71,96,132,106,271
		c9,138,11,141,146,221c115,67,145,92,145,116c0,15-7,19-37,19C14852,2979,14819,2971,14799,2960z M14562,2627
		c-74-158-178-284-274-333c-51-26-107-31-126-12c-35,35,7,89,115,152c33,20,73,50,88,68c31,39,228,218,233,213
		C14600,2713,14584,2674,14562,2627z"/>
	<path d="M16826,2755c6-78-9-155-46-232c-39-80-158-192-266-252c-181-100-240-139-310-204c-125-116-168-239-129-373
		c26-93,110-210,214-300l45-39l-50,66c-144,188-82,346,234,607c169,138,272,280,318,437c22,76,23,240,0,305l-15,45L16826,2755z"/>
</g>
</svg>
